<svg width="100" height="100" viewBox="0 0 100 100" fill="none" xmlns="http://www.w3.org/2000/svg">
<rect x="0.5" y="0.5" width="99" height="99" rx="7.5" fill="white"/>
<path d="M72.6667 78.3333H33C30.7457 78.3333 28.5837 77.4378 26.9896 75.8437C25.3955 74.2497 24.5 72.0877 24.5 69.8333V30.1667C24.5 27.9123 25.3955 25.7503 26.9896 24.1563C28.5837 22.5622 30.7457 21.6667 33 21.6667H72.6667C73.4181 21.6667 74.1388 21.9652 74.6701 22.4965C75.2015 23.0279 75.5 23.7486 75.5 24.5V75.5C75.5 76.2514 75.2015 76.9721 74.6701 77.5035C74.1388 78.0348 73.4181 78.3333 72.6667 78.3333ZM69.8333 72.6667V67H33C32.2486 67 31.5279 67.2985 30.9965 67.8299C30.4652 68.3612 30.1667 69.0819 30.1667 69.8333C30.1667 70.5848 30.4652 71.3055 30.9965 71.8368C31.5279 72.3682 32.2486 72.6667 33 72.6667H69.8333ZM50 44.3333C51.5029 44.3333 52.9442 43.7363 54.0069 42.6736C55.0696 41.6109 55.6667 40.1696 55.6667 38.6667C55.6667 37.1638 55.0696 35.7224 54.0069 34.6597C52.9442 33.597 51.5029 33 50 33C48.4971 33 47.0558 33.597 45.9931 34.6597C44.9304 35.7224 44.3333 37.1638 44.3333 38.6667C44.3333 40.1696 44.9304 41.6109 45.9931 42.6736C47.0558 43.7363 48.4971 44.3333 50 44.3333ZM41.5 55.6667H58.5C58.5 53.4123 57.6045 51.2503 56.0104 49.6563C54.4163 48.0622 52.2543 47.1667 50 47.1667C47.7457 47.1667 45.5837 48.0622 43.9896 49.6563C42.3955 51.2503 41.5 53.4123 41.5 55.6667Z" fill="#008AF1"/>
<rect x="0.5" y="0.5" width="99" height="99" rx="7.5" stroke="#D8E1E8"/>
</svg>
