<svg width="24" height="24" viewBox="0 0 24 24" fill="none" xmlns="http://www.w3.org/2000/svg">
<path fill-rule="evenodd" clip-rule="evenodd" d="M2 3C2 2.44772 2.44772 2 3 2L10 2C10.5523 2 11 2.44772 11 3L11 10C11 10.5523 10.5523 11 10 11L3 11C2.44772 11 2 10.5523 2 10L2 3ZM4 4L4 9H9V4L4 4Z" fill="#696D70"/>
<path fill-rule="evenodd" clip-rule="evenodd" d="M2 14C2 13.4477 2.44772 13 3 13L10 13C10.5523 13 11 13.4477 11 14L11 21C11 21.5523 10.5523 22 10 22H3C2.44772 22 2 21.5523 2 21L2 14ZM4 15L4 20H9V15L4 15Z" fill="#696D70"/>
<path fill-rule="evenodd" clip-rule="evenodd" d="M13 6.5C13 4.01472 15.0147 2 17.5 2C19.9853 2 22 4.01472 22 6.5C22 8.98528 19.9853 11 17.5 11C15.0147 11 13 8.98528 13 6.5ZM17.5 4C16.1193 4 15 5.11929 15 6.5C15 7.88071 16.1193 9 17.5 9C18.8807 9 20 7.88071 20 6.5C20 5.11929 18.8807 4 17.5 4Z" fill="#696D70"/>
<path fill-rule="evenodd" clip-rule="evenodd" d="M13 14C13 13.4477 13.4477 13 14 13L21 13C21.5523 13 22 13.4477 22 14V21C22 21.5523 21.5523 22 21 22H14C13.4477 22 13 21.5523 13 21L13 14ZM15 15L15 20H20V15L15 15Z" fill="#696D70"/>
</svg>
